<?xml version="1.0" encoding="utf-8"?>
<!-- Generator: Adobe Illustrator 16.0.0, SVG Export Plug-In . SVG Version: 6.00 Build 0)  -->
<!DOCTYPE svg PUBLIC "-//W3C//DTD SVG 1.1//EN" "http://www.w3.org/Graphics/SVG/1.1/DTD/svg11.dtd">
<svg version="1.1" id="Layer_1" xmlns="http://www.w3.org/2000/svg" xmlns:xlink="http://www.w3.org/1999/xlink" x="0px" y="0px"
	 width="334.122px" height="99.474px" viewBox="0 0 334.122 99.474" enable-background="new 0 0 334.122 99.474"
	 xml:space="preserve">
<g id="lxzYkp.tif">
	<g>
		<path fill="#FFFFFF" d="M133.174,63.657c0.319,0.247,0.638,0.493,0.957,0.741c-1.129,1.932-2.276,3.854-3.382,5.799
			c-2.003,3.524-4.333,6.918-5.871,10.636c-1.474,3.563-1.418,7.479,1.597,10.448c3.083,3.035,7.029,2.697,10.486,1.071
			c3.245-1.526,6.078-3.946,9.044-6.04c1.737-1.226,2.5-2.858,2.412-5.121c-0.06-1.547-0.208-3.493,1.854-4.662
			c0,2.482-0.01,4.734,0.002,6.987c0.027,5.11,2.834,8.714,7.861,9.782c8.026,1.707,15.364-0.035,21.887-4.934
			c4.023-3.021,8.299-5.965,7.926-12.004c-0.043-0.707,0.836-1.471,1.287-2.208c0.512,1.01,0.545,1.747,0.506,2.479
			c-0.117,2.237-0.438,4.48-0.359,6.709c0.197,5.594,3.547,9.396,8.617,9.938c3.068,0.326,6.019-0.203,8.564-1.99
			c2.172-1.523,4.145-3.328,6.264-4.931c1.777-1.344,2.676-2.901,2.576-5.275c-0.116-2.813,0.371-3.422,1.873-4.282
			c0,2.205-0.007,4.39,0,6.574c0.019,5.286,2.783,8.859,7.967,9.938c9.236,1.919,17.404-0.591,24.166-6.924
			c6.133-5.744,11.769-12.018,17.707-17.974c1.693-1.697,3.561-3.284,5.564-4.591c2.15-1.403,3.459-0.589,3.546,1.991
			c0.036,1.052-0.226,2.115-0.394,3.528c2.084-2.805,3.922-5.344,5.832-7.829c1.612-2.099,1.574-3.934-0.621-5.48
			c-1.227-0.864-2.823-1.454-4.32-1.643c-4.658-0.587-8.145,1.835-11.176,4.978c-6.766,7.016-13.373,14.186-20.221,21.118
			c-4.119,4.171-9.206,6.531-15.213,6.354c-4-0.118-5.944-2.194-5.779-6.183c0.183-4.432,2.384-8.089,4.928-11.505
			c2.545-3.416,5.336-6.664,9.672-7.89c0.754-0.213,1.667,0.134,2.507,0.223c-0.181,0.831-0.147,1.802-0.58,2.471
			c-1.999,3.087-4.634,5.685-8.265,6.439c-4.183,0.868-4.611,4.159-6.047,7.551c8.219-0.381,14.766-3.094,19.578-9.423
			c2.02-2.657,3.176-5.654,3.088-9.024c-0.104-3.965-2.324-6.082-6.289-6.156c-5.844-0.108-10.435,2.787-14.348,6.6
			c-6.855,6.682-13.363,13.72-20.123,20.505c-1.681,1.688-3.633,3.2-5.691,4.396c-2.688,1.562-4.979,0.304-4.912-2.781
			c0.062-2.86,0.492-5.797,1.311-8.535c1.078-3.608,2.695-7.056,4.324-11.191c-2.93,0-5.565-0.132-8.177,0.068
			c-0.962,0.074-2.106,0.72-2.755,1.464c-4.806,5.516-9.307,11.311-14.305,16.642c-4.002,4.269-9.197,6.529-15.205,6.327
			c-3.91-0.131-5.82-2.166-5.719-5.998c0.117-4.452,2.305-8.116,4.827-11.541c2.625-3.566,5.523-6.949,10.08-8.138
			c0.67-0.175,1.66,0.037,2.179,0.463c0.271,0.223,0.032,1.424-0.312,1.974c-2.043,3.274-4.764,5.982-8.566,6.832
			c-4.12,0.921-4.612,4.129-5.935,7.495c8.229-0.334,14.76-3.118,19.567-9.456c1.964-2.588,3.085-5.513,3.055-8.787
			c-0.039-4.099-2.275-6.275-6.363-6.337c-5.843-0.089-10.424,2.824-14.329,6.644c-6.845,6.694-13.337,13.747-20.085,20.542
			c-1.796,1.809-3.921,3.318-6.034,4.763c-0.575,0.394-1.933,0.379-2.424-0.041c-0.521-0.445-0.77-1.699-0.55-2.419
			c0.456-1.489,1.19-2.927,2.008-4.264c2.6-4.252,5.498-8.337,7.859-12.714c1.181-2.188,1.816-4.835,2.042-7.334
			c0.356-3.934-1.991-6.008-5.854-5.315c-2.062,0.37-4.283,1.049-5.929,2.269c-2.65,1.964-4.883,4.492-7.295,6.778
			c-0.608,0.576-1.229,1.14-1.845,1.708c-0.262-0.215-0.524-0.431-0.787-0.646c0.771-1.042,1.413-2.22,2.342-3.094
			c1.506-1.417,1.744-2.871,0.824-4.67c-0.958-1.875-2.661-2.87-4.487-2.405c-2.249,0.57-4.793,1.4-6.355,2.969
			c-3.326,3.342-6.095,7.235-9.105,10.893c-0.649,0.789-1.351,1.536-2.028,2.303c-0.218-0.135-0.437-0.27-0.655-0.404
			c0.308-0.771,0.5-1.617,0.943-2.301c1.494-2.301,3.379-4.405,4.513-6.862c0.67-1.451,0.737-3.685,0.062-5.074
			c-0.444-0.916-2.781-1.473-4.104-1.239c-1.229,0.216-2.42,1.545-3.3,2.646c-1.552,1.941-2.687,4.224-4.292,6.112
			c-4.631,5.451-9.812,10.204-17.058,11.951c-2.872,0.691-5.203-0.566-5.884-3.113c-0.785-2.933,0.748-6.586,3.488-7.558
			c-0.29,0.804-0.543,1.36-0.691,1.943c-0.362,1.432-0.824,2.86-0.971,4.319c-0.172,1.716,0.68,2.908,2.504,3.062
			c1.75,0.148,3.156-0.397,3.379-2.401c0.248-2.224,0.515-4.454,0.563-6.687c0.063-2.907-0.737-5.606-3.71-6.727
			c-3.018-1.136-5.755-0.115-7.94,2.152c-2.98,3.092-4.152,6.966-4.28,11.146c-0.182,5.944,2.518,10.193,7.37,11.285
			c2.064,0.465,4.373,0.589,6.433,0.181c6.709-1.334,12.916-3.53,14.818-11.301c0.217-0.887,0.846-1.672,1.284-2.504
			c0.243,0.062,0.486,0.123,0.729,0.186c-0.04,0.711,0.088,1.483-0.147,2.123c-1.546,4.203-3.185,8.372-4.765,12.563
			c-0.729,1.936-1.729,3.854-1.969,5.857c-0.146,1.221,0.592,3.27,1.524,3.719c1.24,0.598,3.143,0.273,4.591-0.189
			c0.845-0.271,1.438-1.532,2.005-2.437c2.343-3.731,4.506-7.583,6.976-11.229c3.123-4.608,6.414-9.108,9.786-13.539
			c0.707-0.93,2.081-1.354,3.147-2.01c-0.148,1.225,0.006,2.597-0.503,3.646c-1.484,3.061-3.24,5.989-4.876,8.977
			c-2.194,4.005-4.462,7.972-6.523,12.044c-0.947,1.872-0.723,3.774,1.338,4.967c2.046,1.185,4.055,0.751,5.48-1.228
			c0.725-1.006,1.325-2.114,1.881-3.227c4.16-8.314,9.281-15.956,15.821-22.598C131.504,64.845,132.377,64.289,133.174,63.657z
			 M30.995,74.064c-0.348-1.861-0.49-3.537-0.983-5.104c-2.243-7.123-4.617-14.205-6.878-21.322
			c-1.484-4.672-2.078-9.529-0.987-14.29c2.413-10.526,9.232-17.639,18.593-22.48c3.971-2.055,8.239-2.982,12.775-2.591
			c5.944,0.512,8.604,4.269,6.923,9.958c-1.338,4.527-4.048,8.161-7.436,11.335c-2.291,2.146-2.863,4.798-1.327,6.548
			c1.642,1.868,4.34,1.617,6.823-0.607c5.389-4.826,8.786-10.786,10.184-17.879c1.534-7.785-1.684-14.619-8.451-16.539
			c-3.584-1.018-7.583-1.296-11.307-0.953c-8.921,0.82-16.493,5.071-22.989,11c-9.182,8.381-14.196,18.597-12.077,31.382
			c0.568,3.426,1.449,6.823,2.471,10.146c2.404,7.823,4.98,15.594,7.503,23.437C25.923,75.509,28.294,74.834,30.995,74.064z
			 M305.74,74.217c0.387,0.072,0.772,0.145,1.158,0.217c-0.168,2.533-0.481,5.068-0.479,7.602
			c0.005,8.916,6.801,13.79,14.937,10.288c3.404-1.465,6.309-4.213,9.234-6.627c1.938-1.597,2.006-4.061,0.611-5.53
			c-1.365-1.438-3.623-1.252-5.579,0.373c-1.726,1.432-3.404,2.971-5.305,4.135c-3.063,1.875-5.511,0.514-5.43-3.111
			c0.056-2.533,0.478-5.142,1.238-7.559c1.185-3.762,2.794-7.391,4.454-11.667c-2.873,0-5.513-0.13-8.127,0.067
			c-0.967,0.073-2.121,0.701-2.77,1.443c-4.865,5.574-9.412,11.444-14.521,16.778c-2.066,2.157-5.186,3.444-8.015,4.704
			c-4.438,1.979-6.175-1.614-5.562-4.939c1.195-6.483,4.394-11.781,9.443-15.973c0.412-0.344,1.052-0.414,1.586-0.611
			c0.166,0.203,0.333,0.405,0.499,0.607c-2.663,3.59-6.933,6.082-8.192,11.086c5.154-2.24,9.893-4.578,13.186-8.784
			c1.621-2.071,2.82-4.719,3.416-7.289c1.002-4.312-1.953-6.788-6.354-5.769c-5.519,1.277-9.279,5.007-12.674,9.189
			c-4.835,5.961-8.555,12.469-9.48,20.266c-0.544,4.589,1.396,8.529,5.12,9.408c2.608,0.615,5.453,0.824,8.112,0.517
			c6.979-0.807,12.273-4.819,16.752-9.931c0.933-1.065,1.279-2.706,1.705-4.138C305.166,77.42,305.404,75.805,305.74,74.217z
			 M75.521,54.647c-0.012-0.242-0.022-0.483-0.034-0.726c-2.343-0.121-4.724-0.563-7.024-0.301
			c-6.537,0.744-11.643,4.267-15.762,9.176c-4.775,5.691-7.913,12.102-7.351,19.809c0.331,4.534,2.131,8.306,6.528,10.104
			c8.025,3.281,19.498-0.98,23.761-8.525c-2.014-0.879-4.013-1.837-6.085-2.59c-0.495-0.18-1.313,0.21-1.855,0.543
			c-1.899,1.168-3.636,2.651-5.634,3.59c-2.258,1.06-4.763,1.188-6.821-0.578c-2.066-1.772-2.146-4.218-1.619-6.678
			c1.529-7.133,5.497-12.533,11.714-16.319c0.759-0.462,1.653-0.913,2.118-1.612C69.424,57.573,72.097,55.631,75.521,54.647z
			 M8.474,94.763c-0.409-0.532-0.818-1.063-1.227-1.596c1.112-0.704,2.168-1.524,3.347-2.089c3.419-1.639,6.767-3.571,10.362-4.665
			c6.494-1.975,13.157-3.39,19.727-5.126c1.149-0.305,2.655-0.196,2.88-2.139c0.281-2.416,0.926-4.791,1.433-7.281
			c-2.08,0.691-4.077,1.449-6.125,2.021c-7.817,2.185-15.694,4.167-23.461,6.512c-4.589,1.387-9.151,3.039-12.696,6.566
			c-2.444,2.434-3.443,6.218-2.141,8.908c1.49,3.076,4.283,3.723,7.354,3.581c5.855-0.269,10.635-3.027,14.852-6.815
			c1.947-1.75,3.58-3.85,5.355-5.791c-0.195-0.198-0.39-0.396-0.584-0.596C20.564,87.531,14.005,89.869,8.474,94.763z
			 M263.019,88.971c-0.202-0.076-0.403-0.152-0.604-0.229c0.246-0.646,0.309-1.506,0.769-1.901c2.245-1.924,4.597-3.722,6.908-5.566
			c0.56-0.446,1.401-0.789,1.619-1.366c1.037-2.739,1.903-5.543,2.83-8.323c-0.114-0.188-0.228-0.378-0.342-0.566
			c-4.56,2.464-9.347,4.596-13.586,7.523c-2.309,1.595-4.251,4.302-5.353,6.929c-1.794,4.276,1.045,7.812,5.665,7.85
			c3.729,0.031,6.982-1.297,9.896-3.515c0.454-0.345,0.943-1.042,0.915-1.548c-0.102-1.778-0.422-3.543-0.77-6.14
			C268.048,84.635,265.533,86.803,263.019,88.971z M320.846,52.847c0,0.006,0,0.012,0,0.018c-4.311,0-8.626-0.124-12.93,0.046
			c-2.595,0.102-4.025,1.906-3.87,4.256c0.167,2.534,1.476,3.628,4.306,3.649c5.889,0.044,11.777,0.152,17.665,0.129
			c1.805-0.008,3.636-0.223,5.405-0.589c2.145-0.445,2.936-2.031,2.641-4.104c-0.301-2.119-1.312-3.496-3.758-3.427
			C327.154,52.914,324,52.847,320.846,52.847z M203.556,60.812c0.003,0.082,0.007,0.164,0.01,0.246
			c3.392-0.156,6.812-0.095,10.165-0.541c2.617-0.348,3.439-1.863,3.145-4.434c-0.275-2.387-1.34-3.203-4.094-3.238
			c-5.812-0.072-11.625-0.215-17.438-0.238c-1.816-0.008-3.666,0.11-5.443,0.458c-2.139,0.417-3.363,2.377-2.953,4.479
			c0.408,2.097,1.508,3.36,3.916,3.299C195.092,60.735,199.324,60.812,203.556,60.812z M316.637,51.315
			c3.62,0,6.845,0.043,10.065-0.043c0.524-0.015,1.33-0.485,1.503-0.938c1.742-4.559,3.533-9.11,4.977-13.768
			c0.656-2.12,0.011-4.123-2.568-4.914c-2.512-0.77-4.527-0.243-5.703,2.134C322.155,39.354,319.594,45.017,316.637,51.315z
			 M199.512,51.313c3.797,0,7.023,0.046,10.246-0.049c0.492-0.015,1.227-0.583,1.407-1.061c1.664-4.402,3.443-8.78,4.751-13.292
			c0.881-3.036,0.008-4.341-2.323-5.196c-2.563-0.94-4.606-0.339-5.862,2.192C205.01,39.396,202.485,44.981,199.512,51.313z"/>
		<path fill-rule="evenodd" clip-rule="evenodd" d="M133.174,63.657c-0.796,0.632-1.669,1.188-2.377,1.907
			c-6.541,6.642-11.661,14.283-15.821,22.598c-0.556,1.112-1.156,2.221-1.881,3.227c-1.425,1.979-3.434,2.412-5.48,1.228
			c-2.061-1.192-2.285-3.095-1.338-4.967c2.061-4.072,4.329-8.039,6.523-12.044c1.636-2.987,3.393-5.916,4.876-8.977
			c0.509-1.05,0.354-2.422,0.503-3.646c-1.067,0.656-2.44,1.08-3.147,2.01c-3.372,4.431-6.664,8.931-9.786,13.539
			c-2.47,3.646-4.633,7.497-6.976,11.229c-0.567,0.904-1.16,2.166-2.005,2.437c-1.448,0.463-3.351,0.787-4.591,0.189
			c-0.932-0.449-1.67-2.498-1.524-3.719c0.24-2.003,1.239-3.922,1.969-5.857c1.581-4.191,3.219-8.36,4.765-12.563
			c0.235-0.64,0.107-1.412,0.147-2.123c-0.243-0.062-0.486-0.124-0.729-0.186c-0.438,0.832-1.067,1.617-1.284,2.504
			c-1.903,7.771-8.109,9.967-14.818,11.301c-2.06,0.408-4.369,0.284-6.433-0.181c-4.853-1.092-7.552-5.341-7.37-11.285
			c0.127-4.18,1.3-8.054,4.28-11.146c2.185-2.268,4.922-3.288,7.94-2.152c2.974,1.12,3.773,3.819,3.71,6.727
			c-0.048,2.232-0.316,4.463-0.563,6.687c-0.223,2.004-1.629,2.55-3.379,2.401c-1.824-0.154-2.677-1.347-2.504-3.062
			c0.147-1.459,0.608-2.888,0.971-4.319c0.147-0.583,0.401-1.14,0.691-1.943c-2.74,0.972-4.273,4.625-3.488,7.558
			c0.681,2.547,3.012,3.805,5.884,3.113c7.246-1.747,12.427-6.5,17.058-11.951c1.605-1.889,2.74-4.171,4.292-6.112
			c0.88-1.101,2.071-2.43,3.3-2.646c1.323-0.233,3.661,0.323,4.104,1.239c0.675,1.39,0.607,3.623-0.062,5.074
			c-1.134,2.457-3.019,4.562-4.513,6.862c-0.443,0.684-0.635,1.529-0.943,2.301c0.219,0.135,0.437,0.27,0.655,0.404
			c0.678-0.767,1.379-1.514,2.028-2.303c3.01-3.657,5.779-7.551,9.105-10.893c1.562-1.568,4.106-2.398,6.355-2.969
			c1.826-0.465,3.529,0.53,4.487,2.405c0.92,1.799,0.682,3.253-0.824,4.67c-0.929,0.874-1.571,2.052-2.342,3.094
			c0.263,0.215,0.525,0.431,0.787,0.646c0.615-0.568,1.236-1.132,1.845-1.708c2.412-2.286,4.645-4.814,7.295-6.778
			c1.646-1.22,3.867-1.898,5.929-2.269c3.863-0.692,6.21,1.382,5.854,5.315c-0.226,2.499-0.862,5.146-2.042,7.334
			c-2.362,4.377-5.259,8.462-7.859,12.714c-0.818,1.337-1.552,2.774-2.008,4.264c-0.22,0.72,0.029,1.974,0.55,2.419
			c0.491,0.42,1.849,0.435,2.424,0.041c2.112-1.444,4.238-2.954,6.034-4.763c6.748-6.795,13.241-13.848,20.085-20.542
			c3.905-3.819,8.486-6.732,14.329-6.644c4.088,0.062,6.324,2.238,6.363,6.337c0.03,3.274-1.091,6.199-3.055,8.787
			c-4.808,6.338-11.339,9.122-19.567,9.456c1.323-3.366,1.814-6.574,5.935-7.495c3.803-0.85,6.523-3.558,8.566-6.832
			c0.344-0.55,0.582-1.751,0.312-1.974c-0.519-0.426-1.509-0.638-2.179-0.463c-4.557,1.188-7.455,4.571-10.08,8.138
			c-2.521,3.425-4.709,7.089-4.827,11.541c-0.101,3.832,1.81,5.867,5.719,5.998c6.007,0.202,11.203-2.059,15.205-6.327
			c4.998-5.331,9.499-11.126,14.305-16.642c0.648-0.744,1.793-1.39,2.755-1.464c2.611-0.2,5.247-0.068,8.177-0.068
			c-1.629,4.136-3.246,7.583-4.324,11.191c-0.818,2.738-1.248,5.675-1.311,8.535c-0.066,3.085,2.225,4.343,4.912,2.781
			c2.059-1.196,4.011-2.708,5.691-4.396c6.76-6.785,13.268-13.823,20.123-20.505c3.913-3.812,8.504-6.708,14.348-6.6
			c3.965,0.074,6.186,2.191,6.289,6.156c0.088,3.37-1.068,6.367-3.088,9.024c-4.812,6.329-11.359,9.042-19.578,9.423
			c1.436-3.392,1.864-6.683,6.047-7.551c3.631-0.755,6.266-3.353,8.265-6.439c0.433-0.669,0.399-1.64,0.58-2.471
			c-0.84-0.089-1.753-0.436-2.507-0.223c-4.336,1.226-7.127,4.474-9.672,7.89c-2.544,3.416-4.745,7.073-4.928,11.505
			c-0.165,3.988,1.779,6.064,5.779,6.183c6.007,0.178,11.094-2.183,15.213-6.354c6.848-6.933,13.455-14.103,20.221-21.118
			c3.031-3.143,6.518-5.564,11.176-4.978c1.497,0.188,3.094,0.778,4.32,1.643c2.195,1.547,2.233,3.382,0.621,5.48
			c-1.91,2.485-3.748,5.024-5.832,7.829c0.168-1.413,0.43-2.477,0.394-3.528c-0.087-2.58-1.396-3.395-3.546-1.991
			c-2.004,1.307-3.871,2.894-5.564,4.591c-5.938,5.956-11.574,12.229-17.707,17.974c-6.762,6.333-14.93,8.843-24.166,6.924
			c-5.184-1.078-7.948-4.651-7.967-9.938c-0.007-2.185,0-4.369,0-6.574c-1.502,0.86-1.989,1.469-1.873,4.282
			c0.1,2.374-0.799,3.932-2.576,5.275c-2.119,1.603-4.092,3.407-6.264,4.931c-2.546,1.787-5.496,2.316-8.564,1.99
			c-5.07-0.541-8.42-4.344-8.617-9.938c-0.078-2.229,0.242-4.472,0.359-6.709c0.039-0.732,0.006-1.47-0.506-2.479
			c-0.451,0.737-1.33,1.501-1.287,2.208c0.373,6.039-3.902,8.982-7.926,12.004c-6.523,4.898-13.861,6.641-21.887,4.934
			c-5.026-1.068-7.833-4.672-7.861-9.782c-0.012-2.253-0.002-4.505-0.002-6.987c-2.062,1.169-1.914,3.115-1.854,4.662
			c0.088,2.263-0.675,3.896-2.412,5.121c-2.967,2.094-5.799,4.514-9.044,6.04c-3.457,1.626-7.403,1.964-10.486-1.071
			c-3.016-2.97-3.071-6.885-1.597-10.448c1.539-3.718,3.868-7.111,5.871-10.636c1.106-1.945,2.253-3.867,3.382-5.799
			C133.812,64.15,133.493,63.904,133.174,63.657z"/>
		<path fill-rule="evenodd" clip-rule="evenodd" d="M30.995,74.064c-2.701,0.77-5.072,1.444-7.163,2.04
			c-2.522-7.843-5.099-15.613-7.503-23.437c-1.021-3.323-1.902-6.721-2.471-10.146c-2.12-12.785,2.895-23.001,12.077-31.382
			c6.496-5.929,14.068-10.18,22.989-11c3.724-0.343,7.723-0.064,11.307,0.953c6.767,1.92,9.984,8.754,8.451,16.539
			c-1.397,7.093-4.794,13.053-10.184,17.879c-2.482,2.224-5.181,2.475-6.823,0.607c-1.536-1.75-0.964-4.402,1.327-6.548
			c3.388-3.174,6.098-6.808,7.436-11.335c1.681-5.689-0.979-9.445-6.923-9.958c-4.536-0.391-8.804,0.536-12.775,2.591
			c-9.361,4.842-16.181,11.955-18.593,22.48c-1.091,4.761-0.497,9.618,0.987,14.29c2.261,7.117,4.636,14.199,6.878,21.322
			C30.505,70.527,30.647,72.203,30.995,74.064z"/>
		<path fill-rule="evenodd" clip-rule="evenodd" d="M305.74,74.217c-0.336,1.588-0.574,3.203-1.035,4.753
			c-0.426,1.432-0.772,3.072-1.705,4.138c-4.479,5.111-9.772,9.124-16.752,9.931c-2.659,0.308-5.504,0.099-8.112-0.517
			c-3.724-0.879-5.664-4.819-5.12-9.408c0.926-7.797,4.646-14.305,9.48-20.266c3.395-4.183,7.155-7.912,12.674-9.189
			c4.4-1.02,7.355,1.456,6.354,5.769c-0.596,2.57-1.795,5.218-3.416,7.289c-3.293,4.206-8.031,6.544-13.186,8.784
			c1.26-5.004,5.529-7.496,8.192-11.086c-0.166-0.202-0.333-0.404-0.499-0.607c-0.534,0.197-1.174,0.268-1.586,0.611
			c-5.05,4.191-8.248,9.489-9.443,15.973c-0.613,3.325,1.123,6.918,5.562,4.939c2.829-1.26,5.948-2.547,8.015-4.704
			c5.109-5.334,9.656-11.204,14.521-16.778c0.648-0.742,1.803-1.37,2.77-1.443c2.614-0.197,5.254-0.067,8.127-0.067
			c-1.66,4.276-3.27,7.905-4.454,11.667c-0.761,2.417-1.183,5.025-1.238,7.559c-0.081,3.625,2.366,4.986,5.43,3.111
			c1.9-1.164,3.579-2.703,5.305-4.135c1.956-1.625,4.214-1.812,5.579-0.373c1.395,1.47,1.326,3.934-0.611,5.53
			c-2.926,2.414-5.83,5.162-9.234,6.627c-8.136,3.502-14.932-1.372-14.937-10.288c-0.002-2.533,0.312-5.068,0.479-7.602
			C306.513,74.361,306.127,74.289,305.74,74.217z"/>
		<path fill-rule="evenodd" clip-rule="evenodd" d="M75.521,54.647c-3.423,0.983-6.097,2.926-8.064,5.892
			c-0.465,0.699-1.358,1.15-2.118,1.612c-6.217,3.786-10.185,9.187-11.714,16.319c-0.527,2.46-0.448,4.905,1.619,6.678
			c2.059,1.766,4.563,1.638,6.821,0.578c1.998-0.938,3.735-2.422,5.634-3.59c0.542-0.333,1.361-0.723,1.855-0.543
			c2.073,0.753,4.071,1.711,6.085,2.59c-4.263,7.545-15.735,11.807-23.761,8.525c-4.397-1.798-6.197-5.569-6.528-10.104
			c-0.562-7.707,2.575-14.117,7.351-19.809c4.119-4.909,9.225-8.432,15.762-9.176c2.3-0.263,4.681,0.18,7.024,0.301
			C75.498,54.164,75.509,54.405,75.521,54.647z"/>
		<path fill-rule="evenodd" clip-rule="evenodd" d="M8.474,94.763c5.531-4.894,12.09-7.231,19.077-8.509
			c0.194,0.199,0.389,0.397,0.584,0.596c-1.775,1.941-3.408,4.041-5.355,5.791c-4.217,3.788-8.997,6.547-14.852,6.815
			c-3.07,0.142-5.864-0.505-7.354-3.581c-1.303-2.69-0.304-6.475,2.141-8.908c3.545-3.527,8.107-5.18,12.696-6.566
			c7.768-2.345,15.645-4.327,23.461-6.512c2.048-0.572,4.045-1.33,6.125-2.021c-0.507,2.49-1.152,4.865-1.433,7.281
			c-0.226,1.942-1.731,1.834-2.88,2.139c-6.57,1.736-13.233,3.151-19.727,5.126c-3.596,1.094-6.943,3.026-10.362,4.665
			c-1.179,0.564-2.235,1.385-3.347,2.089C7.656,93.699,8.065,94.23,8.474,94.763z"/>
		<path fill-rule="evenodd" clip-rule="evenodd" d="M263.019,88.971c2.515-2.168,5.029-4.336,7.948-6.853
			c0.348,2.597,0.668,4.361,0.77,6.14c0.028,0.506-0.461,1.203-0.915,1.548c-2.914,2.218-6.167,3.546-9.896,3.515
			c-4.62-0.038-7.459-3.573-5.665-7.85c1.102-2.627,3.044-5.334,5.353-6.929c4.239-2.928,9.026-5.06,13.586-7.523
			c0.114,0.188,0.228,0.378,0.342,0.566c-0.927,2.78-1.793,5.584-2.83,8.323c-0.218,0.577-1.06,0.92-1.619,1.366
			c-2.312,1.845-4.663,3.643-6.908,5.566c-0.46,0.396-0.522,1.255-0.769,1.901C262.615,88.818,262.816,88.895,263.019,88.971z"/>
		<path fill-rule="evenodd" clip-rule="evenodd" d="M320.846,52.847c3.154,0,6.309,0.067,9.459-0.021
			c2.445-0.069,3.457,1.308,3.758,3.427c0.295,2.072-0.496,3.658-2.641,4.104c-1.77,0.366-3.601,0.581-5.405,0.589
			c-5.888,0.023-11.776-0.085-17.665-0.129c-2.83-0.021-4.139-1.115-4.306-3.649c-0.155-2.35,1.275-4.154,3.87-4.256
			c4.304-0.17,8.619-0.046,12.93-0.046C320.846,52.858,320.846,52.853,320.846,52.847z"/>
		<path fill-rule="evenodd" clip-rule="evenodd" d="M203.556,60.812c-4.231,0-8.464-0.077-12.692,0.03
			c-2.408,0.062-3.508-1.202-3.916-3.299c-0.41-2.102,0.814-4.062,2.953-4.479c1.777-0.348,3.627-0.466,5.443-0.458
			c5.812,0.023,11.625,0.166,17.438,0.238c2.754,0.035,3.818,0.852,4.094,3.238c0.295,2.57-0.527,4.086-3.145,4.434
			c-3.354,0.446-6.773,0.385-10.165,0.541C203.562,60.977,203.559,60.895,203.556,60.812z"/>
		<path fill-rule="evenodd" clip-rule="evenodd" d="M316.637,51.315c2.957-6.299,5.519-11.961,8.273-17.527
			c1.176-2.377,3.191-2.904,5.703-2.134c2.579,0.791,3.225,2.794,2.568,4.914c-1.443,4.657-3.234,9.209-4.977,13.768
			c-0.173,0.452-0.979,0.923-1.503,0.938C323.481,51.358,320.257,51.315,316.637,51.315z"/>
		<path fill-rule="evenodd" clip-rule="evenodd" d="M199.512,51.313c2.974-6.333,5.498-11.918,8.219-17.405
			c1.256-2.531,3.299-3.133,5.862-2.192c2.331,0.855,3.204,2.161,2.323,5.196c-1.308,4.512-3.087,8.889-4.751,13.292
			c-0.181,0.479-0.915,1.046-1.407,1.061C206.535,51.359,203.309,51.313,199.512,51.313z"/>
	</g>
</g>
</svg>
